<svg id="Livello_1" data-name="Livello 1" xmlns="http://www.w3.org/2000/svg" viewBox="0 0 310.59 59.68"><defs><style>.cls-1{fill:#fff;}</style></defs><title>bandiera_bianco</title><path class="cls-1" d="M7.56,38.31h0a19.25,19.25,0,0,1,7.84-1.74,19.32,19.32,0,0,1,7.85,1.74,16.51,16.51,0,0,0,6.53,1.43,16.46,16.46,0,0,0,6.52-1.42h0a18.56,18.56,0,0,1,15.69,0,16.51,16.51,0,0,0,6.53,1.43c.33,0,.65,0,1,0V22.87c-.32,0-.64,0-1,0a19.17,19.17,0,0,1-7.84-1.75,15.67,15.67,0,0,0-13.06,0h0a19.17,19.17,0,0,1-7.84,1.75,19.17,19.17,0,0,1-7.84-1.75,16.59,16.59,0,0,0-6.54-1.43,16.46,16.46,0,0,0-6.53,1.43h0A19.17,19.17,0,0,1,1,22.91c-.35,0-.69,0-1,0V39.7c.34,0,.68,0,1,0A16.46,16.46,0,0,0,7.56,38.31Z"/><path class="cls-1" d="M50.68,41.9a15.62,15.62,0,0,0-13.06,0h0a18.44,18.44,0,0,1-15.68,0,16.59,16.59,0,0,0-6.54-1.43A16.65,16.65,0,0,0,8.87,41.9h0A19,19,0,0,1,1,43.65c-.35,0-.69,0-1,0V59.49H59.49V43.62c-.32,0-.64,0-1,0A19,19,0,0,1,50.68,41.9Z"/><path class="cls-1" d="M7.56,17.57h0a19,19,0,0,1,7.84-1.75,19.06,19.06,0,0,1,7.85,1.75A16.51,16.51,0,0,0,29.78,19a16.38,16.38,0,0,0,6.52-1.43h0a18.46,18.46,0,0,1,15.69,0A16.51,16.51,0,0,0,58.52,19c.33,0,.65,0,1,0V0H0V19c.34,0,.68,0,1,0A16.46,16.46,0,0,0,7.56,17.57Z"/><path class="cls-1" d="M96.23,12.35h-.81C95.42,6.53,90.51.81,84.28.81c-9,0-10.22,11.18-10.22,17.81s1.22,17.81,10.22,17.81c6.38,0,11.14-6.27,11.14-12.6h.81a16.19,16.19,0,0,1-2.43,7.86C93,33,89.5,37.25,84.28,37.25c-8.55,0-16-8.26-16-18.63S75.73,0,84.28,0a11.58,11.58,0,0,1,9.1,4.45C96.23,7.66,96.23,12.35,96.23,12.35Z"/><path class="cls-1" d="M120.36.81V28.08c0,5.77,4.35,8.35,8.65,8.35,7.09,0,11.54-3.39,11.54-10.93V.81h.81v25.3c0,7.89-5.67,11.14-12.4,11.14-8.35,0-13.76-2-13.76-10V.81Z"/><path class="cls-1" d="M161.85.81h5.31l10.63,26.92L188.21.81h5.16V36.43h-5.16V3.54h-.1L175.76,35.62h-.45L162.76,4.15h-.1V36.43h-.81Z"/><path class="cls-1" d="M214.11.81h25v.81H219.28V17.91h10.37v.81H219.28v16.9h19.88v.81h-25Z"/><path class="cls-1" d="M261.62.81h5.17V31.07c0,5.72-3.19,9.21-8.05,9.21-3.49,0-5.37-2-5.37-4.25a2.68,2.68,0,0,1,2.74-3,2.26,2.26,0,0,1,2.43,2.33c0,2.23-2.53,1.83-2.53,2.73,0,.71,1,1.37,2.73,1.37,2.18,0,3.95-.66,3.95-2.88,0-2.54-1.07-2.84-1.07-3.85Z"/><path class="cls-1" d="M301,24.9H290.16l-3.78,11.53h-1L297.45,0H298l12.58,36.43h-5.7ZM295.53,8.75h-.11l-5,15.34h10.28Z"/><path class="cls-1" d="M77.62,59.6H74V50.34H77.5a2.44,2.44,0,0,1,2.73,2.47,2.12,2.12,0,0,1-1.36,2A2.24,2.24,0,0,1,80.38,57,2.46,2.46,0,0,1,77.62,59.6Zm-.19-8.37H75v3.21h2.42c1,0,1.82-.51,1.82-1.61S78.45,51.23,77.43,51.23Zm.1,4.09H75v3.39h2.52a1.7,1.7,0,1,0,0-3.39Z"/><path class="cls-1" d="M85.3,59.6V50.34h5.75v.89H86.29v3.26h4.06v.88H86.29v3.34h4.76v.89Z"/><path class="cls-1" d="M101.1,59.6l-.74-2.1h-4l-.74,2.1h-1l3.41-9.26h.83l3.39,9.26Zm-2.74-7.84-1.75,4.89h3.46Z"/><path class="cls-1" d="M109,59.68a3.26,3.26,0,0,1-2.36-1c-.88-.87-.88-1.78-.88-3.74s0-2.87.88-3.74a3.26,3.26,0,0,1,2.36-1A3.12,3.12,0,0,1,112.21,53h-1a2.19,2.19,0,0,0-2.2-1.87,2.23,2.23,0,0,0-1.6.65c-.58.6-.65,1.23-.65,3.17s.07,2.57.65,3.17a2.27,2.27,0,0,0,3.83-1.22h1A3.13,3.13,0,0,1,109,59.68Z"/><path class="cls-1" d="M122.38,59.6V55.37H118V59.6h-1V50.34h1v4.15h4.4V50.34h1V59.6Z"/><path class="cls-1" d="M137.37,59.68a3.3,3.3,0,0,1-2.37-1c-.87-.87-.87-1.78-.87-3.74s0-2.87.87-3.74a3.3,3.3,0,0,1,2.37-1A3.13,3.13,0,0,1,140.58,53h-1a2.19,2.19,0,0,0-2.2-1.87,2.21,2.21,0,0,0-1.6.65c-.59.6-.65,1.23-.65,3.17s.06,2.57.65,3.17a2.27,2.27,0,0,0,3.82-1.22h1A3.13,3.13,0,0,1,137.37,59.68Z"/><path class="cls-1" d="M145.36,59.6V50.34h1v8.37h4.73v.89Z"/><path class="cls-1" d="M158.09,59.68a3.06,3.06,0,0,1-3.22-3.14v-6.2h1v6.12a2.25,2.25,0,1,0,4.49,0V50.34h1v6.2A3.07,3.07,0,0,1,158.09,59.68Z"/><path class="cls-1" d="M170.08,59.6h-3.61V50.34H170a2.44,2.44,0,0,1,2.73,2.47,2.13,2.13,0,0,1-1.37,2,2.23,2.23,0,0,1,1.51,2.2A2.45,2.45,0,0,1,170.08,59.6Zm-.2-8.37h-2.42v3.21h2.42c1,0,1.82-.51,1.82-1.61S170.91,51.23,169.88,51.23Zm.11,4.09h-2.53v3.39H170a1.7,1.7,0,1,0,0-3.39Z"/><path class="cls-1" d="M189.75,59.6l-.84-1a3.83,3.83,0,0,1-2.73,1.1A2.64,2.64,0,0,1,183.26,57c0-1.4,1-2.1,2-2.77a3.26,3.26,0,0,1-1-2,2,2,0,0,1,4.06,0,2,2,0,0,1-1,1.65l-.69.47L189,57.18a3.47,3.47,0,0,0,.53-2.12h.93a4.34,4.34,0,0,1-.86,2.84L191,59.6Zm-3.94-4.76c-.8.55-1.59,1.07-1.59,2.12a1.82,1.82,0,0,0,1.95,1.85,3.08,3.08,0,0,0,2.18-.9Zm.49-3.73a1,1,0,0,0-1.07,1.08c0,.43.23.78.84,1.52l.49-.34c.43-.3.83-.62.83-1.16A1.08,1.08,0,0,0,186.3,51.11Z"/><path class="cls-1" d="M207,59.6V55.37h-4.39V59.6h-1V50.34h1v4.15H207V50.34h1V59.6Z"/><path class="cls-1" d="M218.54,58.71a3.37,3.37,0,0,1-4.73,0c-.87-.87-.87-1.78-.87-3.74s0-2.87.87-3.74a3.37,3.37,0,0,1,4.73,0c.87.87.87,1.78.87,3.74S219.41,57.84,218.54,58.71Zm-.77-6.9a2.27,2.27,0,0,0-3.2,0c-.58.6-.65,1.22-.65,3.16s.07,2.56.65,3.16a2.27,2.27,0,0,0,3.2,0c.59-.6.65-1.22.65-3.16S218.36,52.41,217.77,51.81Z"/><path class="cls-1" d="M226.79,51.23V59.6h-1V51.23h-2.68v-.89h6.34v.89Z"/><path class="cls-1" d="M233.8,59.6V50.34h5.75v.89h-4.76v3.26h4.06v.88h-4.06v3.34h4.76v.89Z"/><path class="cls-1" d="M244.2,59.6V50.34h1v8.37h4.73v.89Z"/></svg>