<svg id="Livello_1" data-name="Livello 1" xmlns="http://www.w3.org/2000/svg" viewBox="0 0 451.56 451.56"><defs><style>.cls-1{fill:#1dcad3;}.cls-2,.cls-3{fill:#fff;}.cls-2{fill-rule:evenodd;}.cls-3{font-size:40.53px;font-family:Montserrat-Bold, Montserrat;font-weight:700;}.cls-4{letter-spacing:-0.01em;}.cls-5{letter-spacing:-0.04em;}</style></defs><title>01_cameriere</title><rect class="cls-1" width="451.56" height="451.56"/><path class="cls-2" d="M285.52,142.15c.15-2.9.24-5.83.24-8.79-.06-24.86-16-45-35.63-45,0-8.29-10.91-15-24.36-15a60,60,0,0,0-60,60q0,4.44.24,8.79a23.7,23.7,0,0,0-7.37,21.65c1.79,10.14,7.86,21.34,17.37,25.41,10.77,26.61,29,44.11,49.74,44.11s39-17.5,49.76-44.11c9.51-4.07,15.58-15.27,17.38-25.41A23.76,23.76,0,0,0,285.52,142.15ZM184.86,175.68a5.2,5.2,0,0,0,1.95-.8,102.62,102.62,0,0,0,7.64,18.33c5.59,10.3,15.17,22.57,27.49,24.77a21.8,21.8,0,0,0,7.67,0c12.3-2.21,21.91-14.47,27.49-24.77a101.93,101.93,0,0,0,7.65-18.33,5,5,0,0,0,1.95.8c4.76.83,9.87-5.64,11.44-14.48A8.75,8.75,0,0,0,271,151.07c-2.77-.49-5.54,1.93-6.95,4.1a1,1,0,0,1-1.11.41,1,1,0,0,1-.73-1v-11a30.09,30.09,0,0,1-12.1-14.94A60.09,60.09,0,0,1,189.31,146v8.6a1,1,0,0,1-1.83.54c-1.41-2.17-4.18-4.59-7-4.1a8.75,8.75,0,0,0-7.09,10.12C175,170,180.11,176.51,184.86,175.68Zm65.91,65.15v20a5,5,0,0,1-8.18,3.86l-11-9.08a7.5,7.5,0,0,1-11.58,0l-11,9.08a5,5,0,0,1-8.18-3.86v-20A5,5,0,0,1,209,237l11,9.08a7.5,7.5,0,0,1,11.58,0l11-9.08a5,5,0,0,1,8.18,3.86Z"/><text class="cls-3" transform="translate(171.21 337.83)"><tspan class="cls-4">C</tspan><tspan x="29.14" y="0">ALL</tspan><tspan class="cls-5" x="-31.41" y="48.64">W</tspan><tspan x="14.19" y="48.64">AITER</tspan></text></svg>