<svg id="Livello_1" data-name="Livello 1" xmlns="http://www.w3.org/2000/svg" viewBox="0 0 451.65 451.65"><defs><style>.cls-1{fill:#d5ba8c;}.cls-2,.cls-3{fill:#fff;}.cls-2{fill-rule:evenodd;}.cls-3{font-size:40.54px;font-family:Montserrat-Bold, Montserrat;font-weight:700;}.cls-4{letter-spacing:-0.02em;}.cls-5{letter-spacing:-0.06em;}.cls-6{letter-spacing:-0.04em;}</style></defs><title>02_menu_oro</title><rect class="cls-1" width="451.65" height="451.65"/><path class="cls-2" d="M286.55,146.7l.45-8a18.8,18.8,0,0,1,15.09-17.55l25.07-5.32a2.37,2.37,0,0,1,2.81,1.84l1.46,7a2.38,2.38,0,0,1-1.84,2.82l-25.06,5.31a7.06,7.06,0,0,0-5.66,6.58l-.42,7.32h16.39a9.53,9.53,0,0,1,9.49,10.12l-5.92,92.7a9.5,9.5,0,0,1-9.49,8.91H254.21a9.5,9.5,0,0,1-9.49-8.91l-5.92-92.7a9.51,9.51,0,0,1,9.49-10.12Zm9.6,41.2h14.28l1.64-29.31H297.79Zm-10.27-29.31H250.82l1.87,29.31h31.55Z"/><path class="cls-2" d="M138.83,129.3a50.86,50.86,0,0,0-6.25,24.82,49.37,49.37,0,0,0,.25,5h64c.16-1.68.24-3.34.24-5a50.86,50.86,0,0,0-6.24-24.82ZM199.6,260.46v2.87a2.5,2.5,0,0,1-2.49,2.49H132.58a2.49,2.49,0,0,1-2.48-2.49v-2.87a2.46,2.46,0,0,1,2.05-2.45l18.26-3.17a9.87,9.87,0,0,0,8.23-9.79V208.2c-21.73-3.69-38.47-26.5-38.47-54.08a62.79,62.79,0,0,1,8.74-32.45,9.7,9.7,0,0,1,8.5-4.78h54.88a9.69,9.69,0,0,1,8.49,4.78,62.79,62.79,0,0,1,8.74,32.45c0,27.58-16.73,50.39-38.46,54.08v36.85a9.87,9.87,0,0,0,8.22,9.79L197.54,258A2.47,2.47,0,0,1,199.6,260.46Z"/><text class="cls-3" transform="translate(110.61 337.82)"><tspan class="cls-4">C</tspan><tspan x="29.11" y="0">ONSU</tspan><tspan class="cls-5" x="153.89" y="0">L</tspan><tspan class="cls-6" x="175.74" y="0">T</tspan><tspan x="199.38" y="0">A</tspan><tspan x="25.28" y="48.65">IL MENÙ</tspan></text></svg>