<svg id="Livello_1" data-name="Livello 1" xmlns="http://www.w3.org/2000/svg" viewBox="0 0 74.38 74.39"><defs><style>.cls-1{fill:#1dcad3;}.cls-2{fill:#d5ba8c;}.cls-3{fill:#004d71;}</style></defs><title>segno_colori</title><path class="cls-1" d="M9.45,47.91h0a24,24,0,0,1,9.81-2.18,24,24,0,0,1,9.81,2.18,20.48,20.48,0,0,0,8.17,1.79,20.91,20.91,0,0,0,8.16-1.78h0a23.16,23.16,0,0,1,19.62,0,20.48,20.48,0,0,0,8.17,1.79c.41,0,.81,0,1.21-.05v-21c-.4,0-.8,0-1.21,0a24,24,0,0,1-9.81-2.18,19.57,19.57,0,0,0-16.33,0h0a23.91,23.91,0,0,1-9.8,2.18,24,24,0,0,1-9.81-2.18,20.74,20.74,0,0,0-8.17-1.79,20.55,20.55,0,0,0-8.17,1.79h0a24,24,0,0,1-9.81,2.18c-.44,0-.86,0-1.28,0v21c.42,0,.84.05,1.28.05A20.55,20.55,0,0,0,9.45,47.91Z"/><path class="cls-2" d="M63.37,52.4A19.52,19.52,0,0,0,47,52.4h0a23.83,23.83,0,0,1-9.8,2.19,24,24,0,0,1-9.81-2.19,20.74,20.74,0,0,0-8.17-1.79,20.55,20.55,0,0,0-8.17,1.79h0a24,24,0,0,1-9.81,2.19c-.44,0-.86,0-1.28-.05V74.39H74.39V54.55c-.4,0-.8,0-1.21,0A24,24,0,0,1,63.37,52.4Z"/><path class="cls-3" d="M9.45,22h0a24,24,0,0,1,9.81-2.18A24,24,0,0,1,29.07,22a20.68,20.68,0,0,0,8.17,1.79A20.63,20.63,0,0,0,45.4,22h0A23.16,23.16,0,0,1,65,22a20.68,20.68,0,0,0,8.17,1.79c.41,0,.81,0,1.21-.05V0H0V23.71c.42,0,.84.05,1.28.05A20.55,20.55,0,0,0,9.45,22Z"/></svg>