<svg id="Livello_1" data-name="Livello 1" xmlns="http://www.w3.org/2000/svg" viewBox="0 0 242.29 152.79"><defs><style>.cls-1{fill:#fff;}</style></defs><title>Tavola disegno 2 copia</title><path class="cls-1" d="M93.41,47.91h0a23.14,23.14,0,0,1,19.61,0,19.57,19.57,0,0,0,16.33,0h0a23.16,23.16,0,0,1,19.62,0,20.48,20.48,0,0,0,8.17,1.79c.41,0,.81,0,1.2-.05v-21q-.59,0-1.2,0a24,24,0,0,1-9.81-2.18,20.74,20.74,0,0,0-8.17-1.79A20.51,20.51,0,0,0,131,26.46h0a24,24,0,0,1-9.81,2.18,23.91,23.91,0,0,1-9.8-2.18,20.8,20.8,0,0,0-8.17-1.79,20.55,20.55,0,0,0-8.17,1.79h0a24,24,0,0,1-9.81,2.18c-.44,0-.87,0-1.29,0v21c.42,0,.85.05,1.29.05A20.61,20.61,0,0,0,93.41,47.91Z"/><path class="cls-1" d="M147.33,52.4a20.74,20.74,0,0,0-8.17-1.79A20.51,20.51,0,0,0,131,52.4h0a23,23,0,0,1-19.61,0,20.8,20.8,0,0,0-8.17-1.79,20.55,20.55,0,0,0-8.17,1.79h0a24,24,0,0,1-9.81,2.19c-.44,0-.87,0-1.29-.05V74.39h74.39V54.55c-.39,0-.79,0-1.2,0A23.91,23.91,0,0,1,147.33,52.4Z"/><path class="cls-1" d="M93.41,22h0A23.14,23.14,0,0,1,113,22a20.8,20.8,0,0,0,8.17,1.79A20.51,20.51,0,0,0,129.35,22h0A23.16,23.16,0,0,1,149,22a20.68,20.68,0,0,0,8.17,1.79c.41,0,.81,0,1.2-.05V0H84V23.71c.42,0,.85.05,1.29.05A20.61,20.61,0,0,0,93.41,22Z"/><path class="cls-1" d="M27.93,104.53h-.81C27.12,98.71,22.21,93,16,93,7,93,5.77,104.17,5.77,110.8S7,128.61,16,128.61c6.38,0,11.13-6.27,11.13-12.6h.81a16.24,16.24,0,0,1-2.42,7.86c-.81,1.28-4.31,5.56-9.52,5.56-8.55,0-16-8.26-16-18.63S7.44,92.18,16,92.18a11.53,11.53,0,0,1,9.09,4.45C27.93,99.84,27.93,104.53,27.93,104.53Z"/><path class="cls-1" d="M52.07,93v27.27c0,5.77,4.35,8.35,8.65,8.35,7.08,0,11.53-3.39,11.53-10.93V93h.82v25.3c0,7.89-5.67,11.14-12.4,11.14-8.35,0-13.77-2-13.77-10V93Z"/><path class="cls-1" d="M93.55,93h5.32l10.63,26.92L119.92,93h5.16v35.62h-5.16V95.72h-.1L107.47,127.8H107L94.46,96.33h-.09v32.28h-.82Z"/><path class="cls-1" d="M145.82,93h25.05v.81H151v16.29h10.38v.81H151v16.9h19.89v.81H145.82Z"/><path class="cls-1" d="M193.33,93h5.16v30.26c0,5.72-3.18,9.21-8,9.21-3.49,0-5.37-2-5.37-4.25a2.68,2.68,0,0,1,2.74-3,2.25,2.25,0,0,1,2.42,2.33c0,2.23-2.53,1.83-2.53,2.73,0,.71,1,1.37,2.74,1.37,2.17,0,3.94-.66,3.94-2.88,0-2.54-1.06-2.84-1.06-3.85Z"/><path class="cls-1" d="M232.7,117.08H221.87l-3.78,11.53h-1l12.11-36.43h.55l12.58,36.43H236.6Zm-5.47-16.15h-.1l-5,15.34h10.27Z"/><path class="cls-1" d="M36.62,152.71H33v-9.26H36.5a2.44,2.44,0,0,1,2.73,2.47,2.11,2.11,0,0,1-1.36,2,2.25,2.25,0,0,1,1.51,2.2A2.45,2.45,0,0,1,36.62,152.71Zm-.19-8.37H34v3.21h2.42c1,0,1.82-.51,1.82-1.61S37.45,144.34,36.43,144.34Zm.1,4.09H34v3.4h2.52a1.71,1.71,0,1,0,0-3.4Z"/><path class="cls-1" d="M44.3,152.71v-9.26h5.75v.89H45.29v3.26h4.06v.89H45.29v3.34h4.76v.88Z"/><path class="cls-1" d="M60.1,152.71l-.74-2.09h-4l-.75,2.09h-1l3.41-9.26h.83l3.39,9.26Zm-2.74-7.84-1.75,4.89h3.46Z"/><path class="cls-1" d="M68,152.79a3.29,3.29,0,0,1-2.36-1c-.87-.87-.87-1.78-.87-3.75s0-2.87.87-3.74a3.25,3.25,0,0,1,2.36-1,3.11,3.11,0,0,1,3.21,2.75h-1a2.19,2.19,0,0,0-2.2-1.87,2.23,2.23,0,0,0-1.6.65c-.58.6-.65,1.24-.65,3.17s.07,2.58.65,3.17A2.27,2.27,0,0,0,70.23,150h1A3.12,3.12,0,0,1,68,152.79Z"/><path class="cls-1" d="M81.38,152.71v-4.22H77v4.22H76v-9.26h1v4.15h4.39v-4.15h1v9.26Z"/><path class="cls-1" d="M96.37,152.79a3.33,3.33,0,0,1-2.37-1c-.87-.87-.87-1.78-.87-3.75s0-2.87.87-3.74a3.29,3.29,0,0,1,2.37-1,3.12,3.12,0,0,1,3.21,2.75h-1a2.19,2.19,0,0,0-2.2-1.87,2.21,2.21,0,0,0-1.6.65c-.58.6-.65,1.24-.65,3.17s.07,2.58.65,3.17A2.27,2.27,0,0,0,98.59,150h1A3.13,3.13,0,0,1,96.37,152.79Z"/><path class="cls-1" d="M104.36,152.71v-9.26h1v8.38h4.73v.88Z"/><path class="cls-1" d="M117.09,152.79a3.05,3.05,0,0,1-3.22-3.13v-6.21h1v6.13a2.24,2.24,0,1,0,4.48,0v-6.13h1v6.21A3.07,3.07,0,0,1,117.09,152.79Z"/><path class="cls-1" d="M129.08,152.71h-3.6v-9.26H129a2.45,2.45,0,0,1,2.73,2.47,2.11,2.11,0,0,1-1.36,2,2.24,2.24,0,0,1,1.5,2.2A2.44,2.44,0,0,1,129.08,152.71Zm-.2-8.37h-2.42v3.21h2.42c1,0,1.82-.51,1.82-1.61S129.91,144.34,128.88,144.34Zm.11,4.09h-2.53v3.4H129a1.71,1.71,0,1,0,0-3.4Z"/><path class="cls-1" d="M148.75,152.71l-.84-1a3.83,3.83,0,0,1-2.73,1.09,2.64,2.64,0,0,1-2.92-2.69c0-1.39,1-2.1,2-2.77a3.28,3.28,0,0,1-1-2,2,2,0,0,1,4.06,0,2,2,0,0,1-1,1.65s-.47.31-.69.47l2.37,2.84a3.54,3.54,0,0,0,.52-2.12h.93a4.34,4.34,0,0,1-.86,2.84l1.42,1.7ZM144.81,148c-.8.55-1.59,1.07-1.59,2.12a1.81,1.81,0,0,0,1.95,1.85,3.07,3.07,0,0,0,2.19-.9Zm.49-3.73a1,1,0,0,0-1.06,1.08c0,.43.22.78.83,1.52l.49-.34c.43-.3.83-.62.83-1.15A1.07,1.07,0,0,0,145.3,144.22Z"/><path class="cls-1" d="M166,152.71v-4.22h-4.39v4.22h-1v-9.26h1v4.15H166v-4.15h1v9.26Z"/><path class="cls-1" d="M177.54,151.83a3.39,3.39,0,0,1-4.73,0c-.87-.87-.87-1.78-.87-3.75s0-2.87.87-3.74a3.39,3.39,0,0,1,4.73,0c.87.87.87,1.78.87,3.74S178.41,151,177.54,151.83Zm-.77-6.91a2.26,2.26,0,0,0-3.19,0c-.59.6-.65,1.23-.65,3.16s.06,2.56.65,3.16a2.26,2.26,0,0,0,3.19,0c.59-.6.65-1.22.65-3.16S177.36,145.52,176.77,144.92Z"/><path class="cls-1" d="M185.8,144.34v8.37h-1v-8.37h-2.68v-.89h6.34v.89Z"/><path class="cls-1" d="M192.8,152.71v-9.26h5.75v.89h-4.76v3.26h4.06v.89h-4.06v3.34h4.76v.88Z"/><path class="cls-1" d="M203.2,152.71v-9.26h1v8.38h4.73v.88Z"/></svg>